<?xml version="1.0" encoding="UTF-8" standalone="no"?>
<!-- Created with Inkscape (http://www.inkscape.org/) -->

<svg
   xmlns:dc="http://purl.org/dc/elements/1.1/"
   xmlns:cc="http://creativecommons.org/ns#"
   xmlns:rdf="http://www.w3.org/1999/02/22-rdf-syntax-ns#"
   xmlns:svg="http://www.w3.org/2000/svg"
   xmlns="http://www.w3.org/2000/svg"
   xmlns:sodipodi="http://sodipodi.sourceforge.net/DTD/sodipodi-0.dtd"
   xmlns:inkscape="http://www.inkscape.org/namespaces/inkscape"
   width="800"
   height="150"
   viewBox="0 0 211.66666 39.687501"
   version="1.1"
   id="svg1579"
   inkscape:version="0.92.4 5da689c313, 2019-01-14"
   sodipodi:docname="buf_data.svg">
  <defs
     id="defs1573" />
  <sodipodi:namedview
     id="base"
     pagecolor="#ffffff"
     bordercolor="#666666"
     borderopacity="1.0"
     inkscape:pageopacity="0.0"
     inkscape:pageshadow="2"
     inkscape:zoom="0.35"
     inkscape:cx="-470"
     inkscape:cy="560"
     inkscape:document-units="mm"
     inkscape:current-layer="layer1"
     showgrid="false"
     units="px"
     inkscape:window-width="1918"
     inkscape:window-height="1058"
     inkscape:window-x="0"
     inkscape:window-y="20"
     inkscape:window-maximized="1" />
  <metadata
     id="metadata1576">
    <rdf:RDF>
      <cc:Work
         rdf:about="">
        <dc:format>image/svg+xml</dc:format>
        <dc:type
           rdf:resource="http://purl.org/dc/dcmitype/StillImage" />
        <dc:title></dc:title>
      </cc:Work>
    </rdf:RDF>
  </metadata>
  <g
     inkscape:label="Layer 1"
     inkscape:groupmode="layer"
     id="layer1"
     transform="translate(0,-257.31248)">
    <g
       transform="matrix(0.26458333,0,0,0.26458333,-91.322368,-105.75462)"
       id="g576">
      <path
         style="fill:none;stroke:#000000;stroke-width:4;stroke-linecap:butt;stroke-linejoin:round"
         inkscape:connector-curvature="0"
         d="m 474.207,1444.26 -0.245,-0.35 -0.283,-0.64 0.034,-0.26 0.042,-0.05 -0.017,0.17 0.054,0.16 0.037,0.18 -0.043,0.25 -0.017,0.3 -0.008,0.38 -0.11,0.64 -0.24,0.8 -0.239,1.06 -0.44,1.46 -0.574,1.64 -0.55,1.87 -0.408,2.04 -0.482,1.72 -0.336,1.42 -0.084,1.11 -0.06,0.83 0.26,0.61 0.257,0.5 0.341,0.18 0.297,-0.14 0.117,-0.31 0.048,-0.45 0.152,-0.27 0.149,-0.4 0.224,-0.88 0.597,-1.19 0.559,-1.35 0.403,-1.43 0.256,-1.77 0.127,-2.02 0.102,-2.11 -0.119,-1.94 0.2,-1.99 0.706,-1.99 0.35,-1.99 0.186,-1.73 0.153,-1.27 0.143,-0.58 0.128,-0.33 0.353,-0.39 0.641,-0.36 0.671,-0.35 0.739,-0.32 0.833,-0.29 1.112,-0.23 1.35,-0.15 1.273,-0.07 1.161,-0.08 0.897,0.02 0.606,0.13 0.515,0.13 0.638,0.12 0.729,0.1 v 0 l 0.461,0.95 v 0"
         id="path574" />
    </g>
    <g
       transform="matrix(0.26458333,0,0,0.26458333,-91.322368,-105.75462)"
       id="g580">
      <path
         style="fill:none;stroke:#000000;stroke-width:4;stroke-linecap:butt;stroke-linejoin:round"
         inkscape:connector-curvature="0"
         d="m 476.581,1446.57 -0.096,-0.01 0.243,-0.12 -0.095,-0.03 0.138,-0.09 0.475,-0.05 0.758,-0.11 0.736,-0.01 0.773,0.01 1.022,-0.09 1.258,-0.1 1.087,-0.22 0.932,-0.21 0.855,-0.1 0.746,-0.19 0.793,-0.08 v 0 l 2.039,0.31 v 0"
         id="path578" />
    </g>
    <g
       transform="matrix(0.26458333,0,0,0.26458333,-91.322368,-105.75462)"
       id="g584">
      <path
         style="fill:none;stroke:#000000;stroke-width:4;stroke-linecap:butt;stroke-linejoin:round"
         inkscape:connector-curvature="0"
         d="m 502.27,1441.74 -1.441,0.01 -1.476,0.14 0.049,0.17 0.132,0.11 0.102,0.33 0.062,0.6 0.004,0.49 -0.024,0.62 -0.062,0.99 -0.216,1.11 -0.244,0.96 -0.541,1.12 -0.272,1.28 -0.104,1.27 -0.165,1.39 -0.284,1.23 -0.062,0.86 -0.031,0.51 -0.14,0.27 h 0.051 l 0.169,-0.24 0.062,-0.27 0.126,-0.2 v -0.36 l 0.101,-0.27 0.083,-0.5 -0.025,-0.81 0.292,-0.93 0.325,-1.23 0.218,-1.54 0.09,-1.67 0.277,-1.72 0.178,-1.57 0.054,-1.54 0.041,-1.6 0.158,-1.34 0.062,-1.11 0.062,-0.87 0.182,-0.76 0.426,-0.58 0.453,-0.51 0.545,-0.44 0.65,-0.29 0.539,-0.13 0.457,-0.04 0.709,0.03 0.715,0.08 0.767,0.05 0.751,0.12 0.754,0.11 0.526,0.2 0.555,0.08 0.464,0.28 0.47,0.4 0.487,0.41 0.505,0.4 0.315,0.5 0.394,0.58 0.314,0.79 0.239,0.74 0.224,0.67 0.023,0.54 -0.095,0.68 0.129,0.63 -0.044,0.52 -0.247,0.47 -0.365,0.38 -0.355,0.37 -0.336,0.29 -0.503,0.08 -0.701,0.28 -0.944,0.45 -1.09,0.3 -0.958,0.17 -0.838,0.03 -0.784,-0.08 -0.678,-0.08 -0.537,-0.06 -0.406,-0.15 -0.221,-0.03 0.123,-0.11 -1.876,1.84 v 0"
         id="path582" />
    </g>
    <g
       transform="matrix(0.26458333,0,0,0.26458333,-91.322368,-105.75462)"
       id="g588">
      <path
         style="fill:none;stroke:#000000;stroke-width:4;stroke-linecap:butt;stroke-linejoin:round"
         inkscape:connector-curvature="0"
         d="m 531.748,1434.78 -0.501,-0.14 -0.845,-0.29 -0.454,0.12 -0.408,0.32 -0.269,0.37 -0.315,0.37 -0.705,0.29 -0.697,0.74 -1.085,0.95 -0.968,1.01 -0.982,1.04 -1.026,1.27 -1.261,1.3 -1.251,1.57 -1.223,1.68 -0.977,1.76 -0.813,1.6 -0.458,1.43 0.028,1.62 -0.191,1.7 -0.412,1.64 0.056,1.22 0.394,0.66 0.792,0.23 0.693,0.08 0.804,-0.19 1.021,-0.42 1.142,-0.89 1.226,-0.95 1.357,-0.95 1.123,-1.18 0.834,-1.21 0.54,-1.34 0.31,-1.22 -0.135,-1.06 -0.453,-1.05 -0.416,-0.8 -0.424,-0.65 -0.536,-0.41 -0.473,-0.24 -0.375,-0.24 -0.236,-0.12 -0.065,-0.04 -0.037,0.15 0.052,0.11 0.134,0.06 0.129,0.06 0.08,0.21 0.033,0.38 0.102,0.51 0.315,0.57 0.459,0.44 0.566,0.28 0.722,0.3 1.054,0.21 1.197,0.09 1.255,-0.01 1.302,-0.09 v 0 l 2.106,0.31 v 0"
         id="path586" />
    </g>
    <g
       transform="matrix(0.26458333,0,0,0.26458333,-91.322368,-105.75462)"
       id="g592">
      <path
         style="fill:none;stroke:#000000;stroke-width:4;stroke-linecap:butt;stroke-linejoin:round"
         inkscape:connector-curvature="0"
         d="m 537.401,1455.58 -0.055,0.18 0.067,-0.28 -0.25,0.04 0.095,-0.06 0.157,-0.2 0.403,-0.52 0.715,-1.03 0.85,-1.3 0.923,-1.38 0.95,-1.59 0.908,-1.86 0.866,-1.95 1.023,-1.86 1.006,-1.87 0.889,-1.72 0.961,-1.43 0.856,-1.16 0.942,-0.9 0.865,-0.7 0.557,-0.45 0.391,-0.12 0.275,0.05 0.199,0.19 0.219,0.19 0.381,0.12 0.473,0.13 0.393,0.41 0.407,0.3 0.28,0.27 0.337,0.52 0.381,0.71 0.167,0.84 0.138,0.81 0.02,0.96 -0.298,1.28 -0.324,1.64 -0.41,1.78 -0.804,1.81 -1.116,1.96 -1.128,1.95 -0.946,1.96 -0.96,1.9 v 0 0"
         id="path590" />
    </g>
    <g
       transform="matrix(0.26458333,0,0,0.26458333,-91.322368,-105.75462)"
       id="g596">
      <path
         style="fill:none;stroke:#000000;stroke-width:4;stroke-linecap:butt;stroke-linejoin:round"
         inkscape:connector-curvature="0"
         d="m 549.69,1445.39 0.12,-0.28 0.251,-0.38 0.116,-0.1 0.074,-0.06 0.233,0.08 0.73,0.07 0.732,0.05 0.561,0.15 0.665,0.13 0.882,0.22 1.226,0.11 1.556,0.19 1.794,-0.02 1.961,-0.04 v 0"
         id="path594" />
    </g>
    <g
       transform="matrix(0.26458333,0,0,0.26458333,-91.322368,-105.75462)"
       id="g600">
      <path
         style="fill:none;stroke:#000000;stroke-width:4;stroke-linecap:butt;stroke-linejoin:round"
         inkscape:connector-curvature="0"
         d="m 583.784,1449.69 h -0.21 -0.072 0.001 l 0.022,0.18 0.229,0.13 0.466,0.12 0.761,0.21 1.05,0.1 1.222,0.09 1.215,-0.02 1.215,-0.14 1.436,-0.15 1.576,-0.26 2.114,-0.15 2.803,-0.11 2.858,-0.32 2.968,-0.2 3.182,-0.06 3.477,-0.27 3.832,-0.17 3.662,-0.05 3.756,-0.04 4.015,-0.26 3.991,-0.3 4.066,-0.2 4.148,-0.19 4.351,-0.29 4.942,-0.3 4.926,-0.3 4.238,-0.28 3.811,-0.15 3.657,-0.24 3.411,-0.16 2.983,0.07 2.546,0.09 1.866,0.18 1.401,0.28 0.684,0.27 -0.032,0.35 -0.127,0.18 -0.391,0.16 h -0.412 l -0.268,0.08 -0.316,0.22 -0.581,0.4 -0.809,0.35 -0.691,0.22 v 0 0"
         id="path598" />
    </g>
    <g
       transform="matrix(0.26458333,0,0,0.26458333,-91.322368,-105.75462)"
       id="g604">
      <path
         style="fill:none;stroke:#000000;stroke-width:4;stroke-linecap:butt;stroke-linejoin:round"
         inkscape:connector-curvature="0"
         d="m 673.801,1432.69 0.391,-0.52 0.483,-1.02 0.643,-0.46 0.652,-0.08 0.322,-0.05 0.166,0.26 0.253,0.35 0.094,0.54 -0.112,0.63 -0.12,0.79 -0.1,1.08 -0.278,1.7 -0.485,2.39 -0.7,2.85 -0.787,3.11 -0.956,3.38 -1.247,3.79 -1.353,4.08 -1.531,3.98 -1.38,3.42 -1.17,2.86 -0.774,2.39 -0.384,2.04 -0.136,1.82 0.048,1.43 -0.119,1.04 -0.005,0.71 0.373,0.38 0.445,0.14 0.4,-0.05 0.327,-0.17 0.442,-0.07 0.587,-0.17 1.16,-0.51 1.799,-0.86 2.311,-1.31 2.708,-1.52 3.162,-1.67 3.815,-1.94 4.145,-2.12 4.417,-2.38 4.89,-2.53 5.179,-2.49 5.551,-2.39 5.508,-2 4.281,-1.53 3.175,-1.17 2.544,-0.83 1.798,-0.81 1.279,-0.57 1.069,-0.42 0.623,-0.22 0.124,0.05 -0.301,0.21 -0.465,0.14 -0.307,0.07 -0.079,-0.01 0.091,-0.17 -0.069,-0.2 -0.025,-0.05 -0.058,-0.19 v 0 0"
         id="path602" />
    </g>
    <g
       transform="matrix(0.26458333,0,0,0.26458333,-91.322368,-105.75462)"
       id="g608">
      <path
         style="fill:none;stroke:#000000;stroke-width:4;stroke-linecap:butt;stroke-linejoin:round"
         inkscape:connector-curvature="0"
         d="m 682.476,1431.39 -0.135,-0.15 -0.151,0.03 0.111,0.01 0.159,0.01 -0.008,0.13 0.069,0.23 0.208,0.36 0.525,0.67 0.956,0.71 1.364,0.76 1.785,0.83 1.925,0.72 2.091,0.75 2.138,0.74 2.244,0.82 2.467,0.92 2.49,0.83 2.389,0.92 2.205,1.02 1.562,1.06 1.165,1.1 1.05,0.99 1.312,1.06 1.305,0.89 1.249,0.74 0.957,0.72 0.969,0.5 0.885,0.6 1.047,0.44 1.288,0.43 1.282,0.38 1.077,0.08 0.763,-0.13 0.779,-0.35 v 0 0"
         id="path606" />
    </g>
    <g
       transform="matrix(0.26458333,0,0,0.26458333,-91.322368,-105.75462)"
       id="g612">
      <path
         style="fill:none;stroke:#000000;stroke-width:4;stroke-linecap:butt;stroke-linejoin:round"
         inkscape:connector-curvature="0"
         d="m 719.284,1451.3 -0.459,-0.16 -0.185,-0.44 0.044,-0.21 0.125,0.09 0.027,0.1 0.084,0.11 0.299,0.07 0.614,0.24 0.776,0.26 0.887,0.02 1.35,-0.14 1.848,-0.06 1.993,0.05 2.164,-0.02 2.404,-0.02 2.778,0.1 3.172,-0.1 3.748,-0.23 4.002,-0.13 4.011,0.22 4.425,0.15 4.683,0.04 5.112,0.23 5.029,0.25 4.687,0.35 4.47,0.33 4.51,0.31 4.636,0.28 4.304,0.28 3.799,0.26 3.392,0.25 2.815,0.25 2.261,0.26 1.56,0.37 0.959,0.37 0.407,0.27 0.079,0.24 -0.265,0.14 -0.585,-0.09 -0.474,-0.04 h -0.403 l -0.708,0.06 v 0 0"
         id="path610" />
    </g>
    <g
       transform="matrix(0.26458333,0,0,0.26458333,-91.322368,-105.75462)"
       id="g616">
      <path
         style="fill:none;stroke:#000000;stroke-width:4;stroke-linecap:butt;stroke-linejoin:round"
         inkscape:connector-curvature="0"
         d="m 804.177,1461.92 h 0.179 l -0.128,-0.06 -0.05,-0.03 0.168,-0.18 0.085,-0.1 0.076,-0.18 0.522,-0.43 0.705,-0.68 0.908,-0.89 1.201,-1.08 1.343,-1 1.454,-1.2 1.321,-1.32 1.137,-1.28 1.218,-1.38 1.539,-1.5 1.415,-1.43 1.131,-1.15 0.938,-0.83 0.721,-0.6 0.504,-0.37 0.399,-0.18 0.436,-0.1 0.515,-0.18 0.599,-0.06 0.546,0.01 0.432,0.17 0.334,0.05 0.304,0.21 0.333,0.31 0.14,0.52 0.227,0.63 0.039,0.83 -0.283,1.15 -0.207,1.59 -0.286,1.83 -0.481,1.63 -0.547,1.63 -0.738,1.77 -0.753,1.7 -0.489,1.52 -0.412,1.22 -0.051,0.97 0.1,0.73 0.201,0.43 0.382,0.42 0.246,0.24 0.302,-0.05 0.094,-0.04 0.076,-0.28 0.027,-0.22 0.319,-0.46 0.812,-0.78 1.105,-0.99 1.531,-1.06 1.652,-1.35 1.7,-1.64 1.931,-1.82 1.907,-1.92 1.605,-1.86 1.358,-1.74 1.474,-1.86 1.427,-2.01 1.366,-1.51 1.127,-0.74 0.755,-0.18 0.329,0.14 0.009,0.29 -0.079,0.39 0.022,0.35 0.248,0.33 0.48,0.34 0.477,0.39 0.378,0.36 0.218,0.59 0.195,0.76 0.174,0.98 0.054,1.31 -0.061,1.38 -0.176,1.51 -0.173,1.4 -0.258,1.5 -0.456,1.68 -0.782,1.9 -0.696,1.75 -0.619,1.8 -0.888,1.89 -0.917,1.76 -0.326,1.48 0.005,0.97 -0.066,0.56 0.336,0.27 0.537,0.05 0.613,-0.18 0.549,-0.29 0.546,-0.42 0.982,-0.64 1.555,-1.23 1.963,-1.6 2.04,-1.87 2.523,-2.26 2.181,-2.34 1.67,-2.08 1.416,-2.24 1.099,-2.5 1.291,-2.5 1.417,-3.03 1.757,-3.36 1.68,-2.91 1.638,-2.05 1.407,-1 0.838,-0.24 0.31,0.13 0.275,0.33 0.378,0.36 0.302,0.35 0.216,0.48 0.189,0.37 0.123,0.46 -0.149,0.71 -0.17,1.17 -0.368,1.63 -0.687,2.1 -0.813,2.25 -0.981,2.35 -0.94,2.66 -0.915,2.48 -0.948,2.11 -0.782,1.84 -0.744,1.76 -0.426,1.51 -0.161,1.24 -0.365,1.22 -0.243,1.15 0.179,0.81 0.288,0.43 0.246,0.26 0.191,0.02 0.336,-0.28 0.308,-0.32 0.598,-0.47 1.128,-0.92 1.625,-1.46 2,-1.7 2.359,-1.82 2.327,-1.85 2.102,-1.66 1.702,-1.71 1.275,-1.69 0.77,-1.45 0.58,-1.16 0.501,-1.12 0.092,-0.91 0.028,-0.46 h 0.005 l -0.215,0.17 -0.077,0.33 0.057,0.31 -0.004,0.21 0.048,0.21 0.247,0.2 0.319,0.28 0.545,0.37 0.299,0.41 0.112,0.26 0.147,0.19 0.344,0.19 0.305,0.25 0.185,0.16 0.41,0.21 0.06,0.48 v 0"
         id="path614" />
    </g>
    <g
       transform="matrix(0.26458333,0,0,0.26458333,-91.322368,-105.75462)"
       id="g620">
      <path
         style="fill:none;stroke:#000000;stroke-width:4;stroke-linecap:butt;stroke-linejoin:round"
         inkscape:connector-curvature="0"
         d="m 879.295,1454.15 -0.157,0.01 h 0.033 -0.077 l 0.045,0.08 0.158,0.02 h 0.32 0.499 l 0.721,0.09 0.774,0.11 0.85,0.23 1.122,-0.1 1.353,-0.24 1.745,-0.17 2.077,-0.14 2.459,-0.23 2.665,-0.33 3.277,-0.32 4.218,-0.41 4.681,-0.42 4.858,-0.16 4.976,-0.23 5.341,-0.12 5.044,-0.22 4.582,-0.02 4.721,-0.01 4.83,-0.03 4.758,-0.17 4.692,-0.2 5.089,-0.33 5.171,-0.35 4.877,-0.11 4.353,-0.06 4.031,-0.05 3.725,0.06 3.054,0.06 2.339,0.06 1.78,0.35 1.257,0.38 0.624,0.24 -0.228,0.11 -0.729,-0.01 -0.613,0.04 -0.395,-0.03 -0.292,-0.13 -0.358,-0.17 -1.003,-0.05 -1.01,0.12 -0.703,0.14 -0.781,0.13 -0.771,0.36 v 0 0"
         id="path618" />
    </g>
    <g
       transform="matrix(0.26458333,0,0,0.26458333,-91.322368,-105.75462)"
       id="g624">
      <path
         style="fill:none;stroke:#000000;stroke-width:4;stroke-linecap:butt;stroke-linejoin:round"
         inkscape:connector-curvature="0"
         d="m 996.258,1449.68 -1.061,-0.28 -1.745,-0.37 -1.382,0.13 -1.133,0.25 -0.993,0.23 -1.231,0.47 -1.456,0.9 -1.9,1.14 -2.094,1.13 -1.969,0.94 -1.53,1.06 -0.994,1.13 -0.565,1.3 0.096,1.32 0.656,1.36 1.038,1.24 1.484,0.9 1.75,0.82 2.256,0.62 2.617,0.33 2.812,-0.26 2.883,-0.71 2.489,-1.05 2.147,-1.18 1.807,-1.29 1.36,-1.32 0.87,-1.31 0.46,-1.12 -0.01,-0.93 -0.37,-0.73 -0.57,-0.8 -0.54,-0.88 -0.83,-0.72 -1.012,-0.69 -1.067,-0.65 -1.275,-0.74 -1.361,-0.81 -1.644,-0.5 -1.726,-0.37 -1.524,-0.16 -1.582,0.08 -1.877,0.42 -2.362,0.63 -2.561,0.8 -1.949,1.1 -1.483,1.09 -0.985,0.92 -0.391,0.94 -0.225,0.95 -0.012,1.08 -0.108,1.28 -0.262,1.43 0.493,1.63 1.057,1.3 0.914,1.15 0.89,0.98 0.667,1.07 1.019,0.86 1.351,0.64 1.198,0.36 1.088,0.01 0.913,-0.27 0.878,-0.68 0.976,-1.07 1.052,-1.17 0.764,-1.09 0.474,-0.92 0.132,-0.81 -0.191,-0.83 -0.059,-0.82 0.026,-1.03 0.007,-0.99 0.06,-1.05 -0.232,-0.79 -0.327,-0.71 -0.214,-0.71 -0.528,-0.54 -0.82,-0.5 -0.984,-0.45 -1.293,-0.14 -1.473,0.08 -1.379,0.32 -1.624,0.7 -1.376,0.92 -0.861,0.88 -0.748,0.91 -0.387,0.93 -0.15,0.75 0.181,0.93 0.343,1.09 0.716,0.93 1.053,0.81 1.007,0.75 1.099,0.62 1.014,0.41 1.308,0.17 1.916,-0.06 2.08,-0.19 1.622,-0.5 1.068,-0.56 0.62,-0.61 0.544,-0.75 0.406,-0.96 0.156,-0.96 0.183,-0.86 0.27,-0.91 -0.056,-0.83 -0.138,-0.56 0.22,-0.56 -0.22,-0.64 -0.46,-0.45 -0.44,-0.54 -0.454,-0.39 -0.592,-0.36 -0.702,-0.28 -0.809,-0.3 -1.19,-0.1 -1.651,0.14 -2.019,0.35 -2.409,0.55 -2.234,0.51 -1.835,0.78 -1.338,0.85 -0.701,0.94 -0.05,0.89 0.312,0.8 0.461,1.07 0.538,1.26 0.724,1.18 0.911,0.98 1.129,0.72 1.367,0.45 1.811,0.21 2.058,-0.09 2.302,-0.46 2.272,-0.77 1.694,-0.97 1.226,-1.17 0.93,-1.21 0.619,-1.27 0.508,-1.26 0.598,-1.11 0.167,-1.36 0.005,-1.45 0.08,-1.38 -0.488,-1.42 -0.79,-1.41 -0.778,-1.25 -0.81,-0.88 -0.906,-0.67 -1.007,-0.29 -1.045,-0.17 -1.015,-0.11 -0.997,0.14 -1.032,0.55 -0.959,0.62 -1.019,0.86 -1.228,1.22 -1.423,1.44 -1.017,1.72 -0.615,1.54 -0.445,1.18 0.005,1.07 0.337,0.91 0.739,0.87 0.932,0.62 1.133,0.48 1.453,0.4 1.747,0.15 1.791,-0.2 1.678,-0.52 1.279,-0.5 0.992,-0.63 0.817,-0.78 0.656,-0.44 -2.261,2.59 v 0"
         id="path622" />
    </g>
    <g
       transform="matrix(0.26458333,0,0,0.26458333,-91.322368,-105.75462)"
       id="g628">
      <path
         style="fill:none;stroke:#000000;stroke-width:4;stroke-linecap:butt;stroke-linejoin:round"
         inkscape:connector-curvature="0"
         d="m 825.617,1404.15 -0.168,0.16 0.022,-0.24 -0.231,0.04 -0.081,0.02 0.002,0.01 0.114,0.01 0.114,-0.12 -0.061,-0.13 0.032,-0.16 -0.136,-0.11 -0.103,-0.07 v -0.07 l -0.134,0.04 -0.084,0.05 0.004,0.03 0.027,0.02 0.027,0.02 h 0.022 0.075 l 0.127,-0.01 0.234,0.09 0.257,0.12 h 0.424 l 0.734,0.08 1.033,-0.11 1.134,-0.25 1.171,-0.14 1.031,-0.23 0.82,-0.11 0.442,-0.08 0.22,0.16 0.204,0.16 0.078,0.18 0.077,0.24 0.066,0.14 -0.013,0.28 -0.263,0.3 -0.174,0.31 -0.219,0.46 -0.521,0.71 -0.684,0.9 -0.754,1.07 -0.847,0.95 -1.011,0.87 -0.991,0.93 -0.983,0.6 -0.904,0.41 -0.664,0.39 -0.52,0.19 -0.48,0.09 -0.407,0.24 -0.239,0.21 -0.035,0.02 0.247,-0.09 0.238,-0.07 -0.006,-0.03 0.05,-0.01 0.06,0.01 0.105,0.03 0.241,0.02 0.367,0.13 0.554,0.13 0.674,0.13 0.675,0.01 0.617,0.1 0.662,0.09 0.565,0.1 0.317,0.1 0.231,0.09 0.239,0.08 0.272,0.18 0.303,0.31 0.237,0.33 0.227,0.4 0.14,0.61 0.047,0.76 0.052,0.66 0.16,0.67 0.197,0.67 -0.008,0.57 0.081,0.49 0.194,0.47 -0.002,0.4 -0.239,0.27 -0.153,0.26 -0.525,0.16 -0.897,0.21 -0.972,0.14 -0.994,0.03 -1.142,0.24 -1.148,0.41 -1.09,0.22 -1.186,0.19 -1.388,0.28 -1.343,0.3 -1.082,0.3 -0.78,0.06 -0.42,0.14 0.032,0.16 0.086,0.14 -0.014,0.17 -0.213,0.59 v 0"
         id="path626" />
    </g>
    <g
       transform="matrix(0.26458333,0,0,0.26458333,-91.322368,-105.75462)"
       id="g632">
      <path
         style="fill:none;stroke:#000000;stroke-width:4;stroke-linecap:butt;stroke-linejoin:round"
         inkscape:connector-curvature="0"
         d="m 841.981,1404.07 -0.052,-0.17 0.192,-0.15 0.382,-0.08 0.253,-0.09 0.262,-0.06 0.394,0.03 0.629,-0.07 0.648,0.01 0.523,0.14 0.452,0.03 0.508,0.01 0.541,0.11 h 0.644 l 0.55,0.1 0.622,-0.01 0.335,0.21 0.263,0.21 0.145,0.3 0.171,0.32 0.093,0.42 -0.096,0.51 -0.297,0.61 -0.308,0.43 -0.051,0.45 -0.392,0.52 -0.549,0.68 -0.759,0.58 -0.742,0.55 -0.909,0.41 -0.722,0.31 -0.519,0.38 -0.56,0.18 -0.677,0.19 -0.611,0.21 -0.303,0.14 -0.299,-0.09 -0.162,-0.08 0.304,0.06 0.183,-0.04 0.247,-0.16 0.323,-0.13 0.148,-0.13 0.146,-0.05 0.041,-0.07 -0.082,0.06 0.167,-0.04 0.467,0.02 0.866,-0.19 0.95,-0.01 0.805,0.01 0.69,0.01 0.634,0.02 0.708,0.02 0.619,0.12 0.389,0.13 0.294,0.31 0.233,0.35 0.262,0.22 0.263,0.39 0.124,0.43 0.121,0.39 0.234,0.35 0.183,0.37 -0.137,0.45 -0.267,0.56 -0.068,0.68 -0.132,0.8 -0.237,0.53 -0.303,0.41 -0.392,0.46 -0.539,0.31 -0.715,0.38 -0.845,0.31 -0.946,0.21 -1.011,0.31 -1.004,0.35 -1.151,0.36 -1.26,0.27 -1.345,0.37 -1.048,0.16 -0.527,0.15 -0.354,0.01 -0.111,0.02 0.192,-0.07 0.308,-0.2 -0.168,0.03 v 0"
         id="path630" />
    </g>
  </g>
</svg>
